<svg width="30" height="30" viewBox="0 0 30 30" fill="none" xmlns="http://www.w3.org/2000/svg">
<path d="M4.58027 25C5.09941 25 6.28985 24.8703 7.44784 24.7711C8.41317 24.6883 9.2749 24.2808 10.7283 23.6598C11.8933 23.1621 13.0029 22.2528 13.9382 21.6289C14.8248 21.0375 15.3927 19.8319 15.9532 18.9112C16.4046 18.1698 16.5876 17.3402 16.8494 16.2613C17.4026 13.9819 16.2922 12.8873 15.7708 12.0335C15.2618 11.1999 14.5782 10.4624 13.7581 9.83853C12.8579 9.15374 11.969 8.75676 11.0729 8.49442C10.1282 8.2179 9.06008 8.16724 7.79244 8.068C5.86021 7.90392 3.01838 8.03361 2.12219 8.49147C2.0823 8.51483 2.04252 8.53812 2.0003 8.55918M2.0003 8.55918C1.80443 8.6569 1.55592 8.70682 1 8.49344M2.0003 8.55918C1.99884 8.61954 2.00275 8.67947 2.01238 8.73892C2.05341 8.99227 2.34622 9.18015 2.63904 9.36803M2.0003 8.55918C2.02884 7.37927 4.10977 6.04061 5.62815 5.10089C7.35062 4.03485 8.6949 3.29895 9.73416 2.88524C10.6503 2.52054 11.5077 2.09576 12.7643 1.62037C13.6972 1.26746 15.0524 1.2076 16.3867 1.05009C18.368 0.81619 19.2716 1.45811 20.16 1.8073C21.6142 2.37889 23.0426 4.05047 23.9311 4.65301C24.8315 5.2637 25.5205 5.91259 26.9177 7.22848L27.0344 7.33836C27.8399 8.09684 27.742 7.91434 28.1136 8.73892C28.5201 9.64114 28.961 12.0211 28.9998 17.0341C29.0125 18.6801 28.4463 19.4224 28.1136 20.1825C27.7463 21.0216 27.1154 21.6998 26.8192 22.4598C26.5231 23.2199 26.2281 23.9771 25.9319 24.8947C25.6762 25.6871 24.6043 26.2544 23.7159 26.7943C22.9422 27.2646 21.9424 27.3324 21.054 27.5857L18.392 28.3448C17.4556 28.6119 16.3967 28.6608 14.9582 28.8828C12.2237 29.3049 11.2947 28.4748 10.4063 28.1569C9.51866 27.8394 8.63279 27.3362 7.74437 26.987C6.8262 26.6261 5.97087 26.1975 4.89834 25.3444C4.63769 25.1215 4.41808 24.9336 4.23175 24.7429C4.04542 24.5521 3.89902 24.3643 3.74818 24.1707" stroke="#0066FF" stroke-width="2" stroke-linecap="round"/>
</svg>
