<svg width="206" height="44" viewBox="0 0 206 44" fill="none" xmlns="http://www.w3.org/2000/svg">
<path d="M1.59618 4.69727C1.26193 5.02817 1.26193 7.24425 1.53935 9.92327C1.8619 13.038 1.93043 14.6044 2.26301 17.0545C2.86223 21.4689 2.81953 27.3059 3.2106 29.9198C3.37773 34.4422 3.60168 37.9819 3.60168 42.1065V42.4675M11.6235 13.3875C12.399 10.6132 13.5154 7.49132 14.3493 5.37552C14.6284 4.59672 14.9594 3.49369 15.185 2.76001C15.4106 2.02633 15.5209 1.69543 15.9688 1.35449M16.9717 19.4043C16.9717 20.5073 17.082 21.5168 17.3594 24.6119C18.0305 32.0992 18.0847 37.6711 18.307 38.1758C18.6063 38.8554 19.9666 32.9247 22.1375 26.7444C23.2 23.7197 23.9876 22.7501 24.6544 22.1385C25.2692 21.5745 25.9931 21.2995 26.7151 21.1875C27.5445 21.0589 28.3328 21.6304 28.9997 22.1853C30.7127 23.6106 31.2308 25.7484 31.6219 28.3605C32.2091 32.2829 32.1232 33.7737 32.2904 33.9442C33.8112 35.4954 32.6814 29.7727 33.8463 25.6046C34.626 22.8147 36.1309 20.4137 37.3559 19.7402C38.5654 19.0753 40.0282 19.6249 41.4221 20.1263C42.286 20.4371 43.0398 21.0722 43.7618 21.9596C47.4802 26.5302 48.7187 35.6555 49.8351 37.3385C50.0581 37.6745 50.6106 37.6744 50.893 37.5658C51.1755 37.4571 51.2858 37.1262 51.3978 36.7352C51.5097 36.3441 51.62 35.9029 51.7337 35.4483M73.1459 1.17188C72.7595 1.55531 72.3732 2.90895 72.0333 4.55162C71.3061 8.06638 72.2744 10.8333 72.5155 12.8347C72.6846 14.238 72.8554 22.1097 72.6143 27.305C72.6608 31.379 72.8554 37.9061 73.0965 39.8117C73.1459 39.4224 73.1459 39.039 73.1459 38.6439M70.5317 6.10968C70.7235 5.53162 71.6879 4.3726 72.8512 3.54619C74.1404 2.63038 76.4285 1.94999 78.0305 1.70454C79.3666 1.49983 82.9934 1.1715 85.6309 1.46053C87.1554 1.62758 88.2453 2.52514 89.4086 3.15404C90.5344 3.76257 91.731 4.45975 92.7986 5.28326C93.7611 6.02576 93.6715 7.55628 93.8181 9.68405C93.8725 10.4724 94.0607 11.5242 93.9648 12.83C93.8503 14.39 92.3236 15.3993 91.1602 16.2736C90.0425 17.1136 88.8378 17.6302 87.4334 18.259C86.2568 18.7859 85.0616 19.0826 83.8982 19.4704C82.7348 19.8581 81.5758 20.2445 80.3645 20.8734C79.6874 21.2249 78.1917 21.2147 77.1692 21.2147C74.5125 21.2147 83.4756 21.5052 85.8749 21.8901C87.149 22.0944 87.1821 24.1137 87.6687 25.2771C88.1548 26.4394 88.7333 27.5995 89.4101 28.7628C90.1132 29.9714 91.3418 31.277 92.6519 32.587C94.0107 33.9459 95.2168 34.6698 96.3802 35.4454C97.5436 36.2209 100.045 37.5688 102.188 38.3037C102.578 38.3531 102.961 38.3531 103.254 37.9217C103.548 37.4903 103.74 36.6276 103.937 35.7387M111.78 13.3722C111.588 12.9888 111.202 12.6954 110.383 12.5502C107.749 12.0833 105.976 13.7557 105.102 14.8203C104.214 15.9008 103.553 17.1427 103.067 18.306C102.568 19.4986 102.583 20.9189 102.532 26.4221C102.513 28.5197 103.739 29.6333 104.756 30.7967C105.821 32.0154 107.126 33.2179 108.29 34.2346C109.957 35.6918 113.517 34.4844 114.68 33.9499C115.927 33.3774 116.811 32.2593 117.587 31.0959C118.407 29.8654 119.135 28.483 119.621 27.3197C120.095 26.1883 120.204 21.7381 119.867 18.8478C119.688 17.3174 118.659 16.2828 117.691 15.1674C116.73 14.7317 115.562 14.5341 114.115 14.5341H110.908M130.371 2.62402C129.984 3.00746 130.173 4.55282 130.66 6.39301C131.282 8.7479 131.143 11.3326 131.194 19.2947C131.213 22.1989 130.661 24.2997 130.42 26.3854C129.98 30.1942 130.08 32.7179 129.791 34.5726C129.697 35.1761 129.212 35.6401 128.584 35.9785C128.244 36.1252 127.861 36.2211 127.52 36.1746C127.178 36.1281 126.891 35.9364 126.594 35.1579M131.533 21.505C131.724 20.2502 133.072 18.5131 133.903 17.1522C134.618 15.9816 135.785 14.8298 137.048 13.9554C138.197 13.1592 141.479 12.7906 143.729 13.3687C145.063 13.7116 145.76 15.3991 146.731 16.6104C147.872 18.0355 148.665 19.1754 149.203 21.0577C150.521 25.6751 148.77 27.0184 148.382 28.1817C147.994 29.3451 147.608 30.5041 146.642 31.5717C145.769 32.5364 144.32 32.9267 143.108 33.4133C141.755 33.9569 137.476 33.9957 134.732 33.4656C134.116 33.3464 133.665 32.8367 133.326 32.2093C132.985 30.6116 133.177 28.8716 133.854 25.5848C134.048 24.802 134.24 24.3227 134.438 23.8289M159.774 14.0713C159.484 14.4547 159.484 18.3007 159.725 22.3297C160.272 31.482 160.065 32.848 160.306 34.5894C160.799 38.1524 161.032 39.0498 161.321 39.5334C161.514 39.7295 161.802 39.8253 162.094 39.7309C162.385 39.6365 162.673 39.3489 162.969 39.0527M160.355 5.06673C160.17 5.11303 159.985 5.15933 159.815 5.18419M159.815 5.18419C159.633 5.2108 159.47 5.21285 159.343 5.16404C159.097 5.06964 159.001 4.78206 159 4.49013C158.999 4.1982 159.094 3.91062 159.431 3.76247C159.532 3.71836 159.633 3.68398 159.736 3.65811M159.815 5.18419C159.847 5.22962 159.883 5.27287 159.924 5.31364C160.553 5.94108 161.361 6.52764 162.054 6.32306C162.394 6.22285 162.682 5.93527 162.776 5.64334C162.869 5.35613 162.778 5.07315 162.588 4.78608M159.815 5.18419C159.616 4.89971 159.589 4.53015 159.629 4.15317C159.646 3.99091 159.683 3.82285 159.736 3.65811M159.736 3.65811C159.764 3.65103 159.792 3.64458 159.82 3.63875M159.736 3.65811C159.759 3.58531 159.785 3.51316 159.814 3.44245M159.82 3.63875C160.555 3.48647 161.311 3.75387 161.803 3.99922C162.116 4.15545 162.383 4.47996 162.579 4.7719C162.582 4.77662 162.585 4.78135 162.588 4.78608M159.82 3.63875C159.846 4.01996 159.955 4.37965 160.214 4.63392C160.46 4.87502 160.846 5.01566 161.282 4.96942C161.75 4.91978 162.204 4.8731 162.588 4.78608M159.82 3.63875C159.816 3.5738 159.814 3.50823 159.814 3.44245M162.588 4.78608C162.957 4.70253 163.263 4.5818 163.456 4.38556C163.649 4.18948 163.745 3.90191 163.694 3.60997C163.643 3.31804 163.474 3.00558 163.208 2.78791C163.179 2.76469 163.15 2.74182 163.12 2.71938M159.814 3.44245C159.895 3.24207 159.997 3.05326 160.11 2.89394C160.221 2.73606 160.343 2.61023 160.479 2.51076M159.814 3.44245C159.814 3.13701 159.86 2.82704 159.918 2.55407C159.978 2.27042 160.187 2.08485 160.46 1.96192M160.479 2.51076C160.638 2.39428 160.818 2.31396 161.028 2.26069C161.828 2.05682 162.59 2.32216 163.12 2.71938M160.479 2.51076C160.52 2.77656 160.608 3.02669 160.746 3.23089C160.942 3.52138 161.229 3.71309 161.62 3.80895C162.011 3.90481 162.49 3.90481 162.779 3.75666C163.068 3.60852 163.164 3.32094 163.163 3.02901C163.162 2.92462 163.149 2.82079 163.12 2.71938M160.479 2.51076C160.462 2.39846 160.453 2.28335 160.452 2.16773C160.452 2.09898 160.455 2.03041 160.46 1.96192M163.12 2.71938C163.067 2.53718 162.96 2.36277 162.77 2.20695C162.476 1.9644 161.998 1.69772 161.609 1.7262C161.235 1.75353 160.798 1.80966 160.46 1.96192M160.46 1.96192C160.485 1.64267 160.564 1.32527 160.646 1M168.489 13.7813C169.067 13.2991 170.226 12.7182 171.582 12.7632C173.15 12.8153 172.846 18.6847 172.316 21.4254C171.934 23.3969 171.393 26.4463 171.104 28.5901C170.911 29.3627 170.812 32.9211 170.908 37.3786C171.004 38.6727 171.196 38.0016 171.393 37.3103M174 21.1995C174.674 19.4625 175.836 17.7196 176.611 16.5562C177.461 15.282 178.45 13.9433 179.515 13.069C180.556 12.2138 181.837 12.0029 183.772 12C185.431 11.9975 186.485 13.159 187.311 14.2236C188.129 15.2766 187.943 18.9454 187.22 23.0688C185.987 30.0945 187.554 31.5523 188.183 33.5377C188.61 34.8873 189.68 36.0083 191.085 36.9305C193.096 38.2514 196.64 40.7489 200.034 41.677C200.788 41.8831 201.485 41.632 201.975 41.3909C202.752 40.7663 203.336 39.892 203.819 38.8782C204.015 38.3437 204.111 37.7686 204.21 37.1761" stroke="white" stroke-width="2" stroke-linecap="round"/>
</svg>
