<svg width="31" height="30" viewBox="0 0 31 30" fill="none" xmlns="http://www.w3.org/2000/svg">
<path d="M10.1346 20.1491C9.99873 19.9571 9.79238 19.6911 9.56734 19.3977M9.56734 19.3977C9.20095 18.9202 8.78503 18.3703 8.54316 17.9502C8.14965 17.2666 8.03192 16.3151 8.00036 14.399C7.97941 13.1265 8.86866 12.2508 9.77032 11.543C10.7314 10.7885 12.7674 9.93758 13.9486 9.48119C14.7859 9.15767 15.5409 9.02988 17.9096 9.00025C18.9896 8.98673 19.6886 9.53453 20.4406 10.0146C21.3234 10.5783 21.8526 11.3398 22.3656 12.1585C22.7715 12.8063 22.8769 13.653 22.9679 14.9511C23.0398 15.9756 22.9995 17.0975 22.7587 17.7758C22.518 18.454 22.1591 19.1297 21.4982 19.6394C20.8009 20.1772 20.0565 20.5996 19.3342 20.8257C18.5688 21.0653 17.8925 21.6157 16.7239 21.8138C13.7903 22.3112 12.9045 21.6733 12.121 21.5048C11.3789 21.3452 10.6792 21.0535 10.1066 20.4904C9.77754 20.1525 9.53409 19.8121 9.53319 19.4743C9.54199 19.4487 9.55351 19.4232 9.56734 19.3977ZM9.56734 19.3977C9.64557 19.2536 9.79796 19.1105 9.95426 18.9637M15 26C15.1238 26 15.2476 26 15.3734 26.0796C15.7505 27.172 15.8743 28.7845 16 29L15.7505 28.5723M9 24C8.69829 24.3977 7.63314 25.1965 6.75543 25.7407C5.86741 26.2914 5.34743 27.4798 5 28C5.03657 27.8894 5.18743 27.4935 5.30286 27.1763C5.41829 26.8592 5.49371 26.633 5.57143 26.3998M5 20H1M6 10C5.51833 10 4.54953 9.9175 3.64071 9.85437C2.73008 9.70875 1.88488 9.5425 1.00333 9.4175C0.968794 9.335 1.20872 9.17 1.45592 9M13 4.96708V2M24 23C24.2381 23.3191 25.3567 24.0842 26.4019 24.856C26.6437 24.9857 26.8818 25.0492 26.9648 24.955C27.0478 24.8608 26.9684 24.607 26.8867 24.3456M26 15C26.6305 15 27.6652 14.94 29.7355 14.8491C30.0888 14.7891 30.0318 14.6691 29.8884 14.5173C29.7451 14.3655 29.517 14.1855 29.2821 14M25 8C25.6114 7.44313 26.2228 6.88625 26.7878 6.44469C27.3529 6.00312 27.8531 5.69375 27.9719 5.4725C28.0906 5.25125 27.8127 5.1275 27.5264 5M20 5V1" stroke="white" stroke-width="2" stroke-linecap="round"/>
</svg>
