<svg width="168" height="241" viewBox="0 0 168 241" fill="none" xmlns="http://www.w3.org/2000/svg">
<path d="M90.9279 24.8116C91.4016 24.0496 92.9317 22.517 94.0815 21.6515C95.1781 20.826 96.6639 20.8837 98.7668 20.7385C102.291 20.4952 107.86 20.878 109.057 21.9793C110.456 23.266 111.305 24.5183 112.169 25.6699C113 26.7763 113.51 27.9688 114.179 29.1204C114.874 30.3167 115.709 31.4193 116.714 32.5709C117.641 33.6339 118.293 34.8698 119.489 36.2601C120.401 37.3208 121.164 38.6078 121.93 39.7594C122.697 40.911 123.65 41.8686 124.561 42.8275C125.418 43.7287 126.808 44.1689 132.247 44.317C134.319 44.3734 135.42 43.1222 136.523 42.3071C137.559 41.5408 138.389 40.6321 139.441 39.7666C140.509 38.8882 141.642 38.1391 142.217 37.4203C142.737 36.7706 140.312 36.6986 139.163 36.3147C138.013 35.9308 136.867 35.5484 135.717 35.1171C134.448 34.6409 133.422 33.4436 132.32 32.292C131.344 31.2729 130.741 29.9931 129.974 28.8415C129.208 27.6899 128.444 26.5426 127.487 25.6296C126.587 24.7716 126.148 23.3796 125.619 22.228C125.053 20.9944 124.138 19.9291 123.61 18.7775C123.044 17.5439 122.318 16.4786 121.887 15.327C121.412 14.0557 120.406 12.8383 119.401 11.5889C118.443 10.3979 117.058 9.47983 115.386 7.90266C112.72 5.38771 111.604 4.40183 110.407 3.77499C109.057 3.06839 107.872 2.57882 106.484 2.09718C103.37 1.01671 97.8237 1.99798 96.4356 2.38185C95.1918 2.72583 94.0916 3.62547 92.9418 4.44065C91.6972 5.32307 91.1231 6.69067 90.5949 7.84227C90.0489 9.03246 89.4006 10.1412 88.6341 11.2928C87.8676 12.4444 87.1039 13.5917 86.4307 14.4572C86.5211 14.6498 86.9948 14.8396 87.4829 15.0351M89.7796 7.84659C88.924 7.7517 87.012 7.55905 84.2876 7.03428C82.5114 6.69215 80.7938 6.50664 76.3038 6.45632C75.3334 6.50377 74.9545 6.59865 74.6171 6.69498C74.2798 6.79131 73.9956 6.8862 73.9899 6.98396M78.0091 14.7476C76.588 13.0367 72.9449 9.57759 70.6496 7.90122C68.7953 6.54685 67.6797 5.74178 66.53 4.9266C65.3324 4.07753 64.2347 3.44144 63.0849 2.95981C61.9668 2.49144 60.7897 2.19351 57.0188 2.14319C55.2065 2.119 53.8996 2.86061 52.7025 3.29192C50.9889 3.90931 49.3063 4.77564 48.1565 5.30471C46.9249 5.87146 45.8613 6.78843 44.4732 7.84227C43.2007 8.80839 42.1291 9.66385 40.7885 10.7177C39.5057 11.726 38.397 13.1144 37.4855 14.1208C36.5258 15.1804 35.2391 15.9898 33.851 17.2823C32.6577 18.3935 31.507 19.3425 30.3572 19.9694C29.1668 20.6184 28.062 21.6429 26.9122 22.2697C25.7636 22.8959 24.6169 23.2761 23.6552 23.5636C21.8242 24.1111 26.328 25.2889 28.1926 25.9114C29.4888 26.3442 31.0132 26.9164 33.1204 27.5892C34.5952 28.0601 38.8334 27.9745 42.0215 27.4498C43.4442 27.2156 45.0804 26.1573 46.6637 25.6756C49.0299 24.9558 52.1656 22.7068 53.3154 22.1777C54.5801 21.5957 56.4662 20.9815 58.6193 20.5473C63.8385 20.6882 65.9457 21.2633 67.0955 21.4085C67.384 21.456 67.6682 21.5508 67.9611 21.6486M60.7839 29.9873C60.2155 30.6544 58.493 31.8046 57.1049 33.0496C55.8623 34.1643 54.2843 35.4449 53.2752 36.5016C52.3843 37.4346 51.0288 37.9407 49.879 38.3246C48.7544 38.7001 47.3943 38.8034 44.0024 38.8537C42.2859 38.8791 40.7913 38.1363 39.4966 37.6575C37.9623 37.0902 36.2037 35.8417 34.6635 35.1171C33.1994 34.4283 31.7941 33.0583 30.406 31.8132C29.2067 30.7374 27.017 28.9464 25.4768 27.6899C24.4443 26.8475 23.1815 26.6346 21.937 26.2033C20.3429 25.6508 18.2785 25.3052 15.4683 24.8348L15.3383 24.813C14.7584 24.7167 14.3795 24.6218 14.0421 24.5729C13.7048 24.524 13.4206 24.524 12.8407 23.9489M108.153 38.326H108.44M111.294 41.5869C111.116 40.8056 110.222 39.4983 109.099 37.9947C107.787 36.2379 106.543 34.6617 105.373 33.7372C104.373 32.9474 103.22 32.6909 102.141 32.1669C100.973 31.7723 99.985 31.6428 98.9588 31.4465C98.1993 31.3797 96.955 31.3797 95.1344 31.7723M60.5065 42.2805C60.5034 42.0993 61.5284 41.1877 62.8088 40.18C64.8539 38.5706 66.0408 37.7995 67.2228 37.0211C68.393 36.2504 69.4266 35.5095 70.6594 35.143C71.8921 34.7764 73.1203 34.5925 74.353 34.3646C74.9671 34.3179 75.5858 34.2273 76.2506 34.09C76.6108 34.0433 77.0171 34.0433 78.0513 33.4942M119.636 40.0513C119.826 39.8615 120.015 39.6717 120.208 39.7163C120.4 39.7609 120.59 40.0455 120.687 40.382C121.076 41.7213 120.021 42.921 119.685 45.0689C118.728 51.1881 120.113 52.4098 120.449 53.7512C120.727 54.8609 120.592 55.8632 120.736 58.904C121.112 66.8702 120.879 72.5407 121.023 73.1143C121.305 74.24 121.359 78.8292 121.073 81.7406C120.952 82.9818 120.021 84.0395 119.352 85.1911C118.657 86.3874 117.822 87.49 117.103 88.6416C116.452 89.6846 116.1 90.9405 115.619 92.0921C115.138 93.2427 114.566 94.391 113.898 95.5426C113.203 96.7389 111.61 98.4108 110.167 99.5696C109.128 100.404 107.872 100.815 106.722 101.582C105.614 102.322 104.427 102.827 103.277 103.357C102.045 103.923 100.982 105.03 99.8318 105.896C98.7673 106.697 97.5366 107.141 96.3868 107.622C95.2381 108.103 94.0916 108.676 92.9418 109.107C91.7172 109.567 90.4571 110.114 89.2097 110.498C88.0765 110.846 86.9144 110.976 85.5264 111.36C84.1598 111.738 82.6082 111.839 75.9779 111.889C73.6812 111.907 72.5602 111.172 71.4104 110.788C70.2291 110.394 69.1152 109.734 67.9654 109.112C66.8156 108.489 65.6701 107.532 64.5204 106.764C63.3706 105.996 62.0356 105.611 60.7882 105.325C59.5745 105.046 58.493 104.271 57.3432 103.84C56.1186 103.38 55.048 102.643 53.8982 102.114C52.6666 101.548 51.6029 100.82 50.4532 100.15C49.2587 99.4545 48.1579 98.6179 47.0082 97.8501C45.7024 96.9782 44.6153 95.5527 44.0871 94.4011C43.5212 93.1675 42.6057 92.1022 42.0775 90.9031C41.4627 89.5077 41.0727 88.3641 40.9277 87.2125C40.7691 85.9531 40.4985 84.6261 40.1626 83.3321C39.6909 81.5151 39.6372 80.3129 39.4449 79.1613C39.2328 77.8918 38.4889 76.8624 37.9147 75.7108C37.3939 74.6662 37.3406 73.4119 37.1482 72.2603C37.0535 71.9713 36.864 71.6867 36.7664 71.3977C36.6688 71.1087 36.6688 70.824 36.9559 70.2432M44.9943 48.1025C43.5674 49.5316 41.0784 52.0245 40.1167 53.2739C39.2851 54.3542 38.2994 55.2853 37.7712 56.4369C37.2053 57.6705 36.2898 58.7358 35.2377 59.3626C34.9491 59.5064 34.6649 59.6962 34.708 59.8414C34.7511 59.9866 35.13 60.0815 35.5204 60.1792M36.6688 62.192C36.6688 62.0971 36.6688 62.0023 36.5267 61.8585C36.3846 61.7147 36.1004 61.5249 35.8592 61.2848C35.6181 61.0447 35.4286 60.7601 34.9463 60.1792M31.5012 54.7159C31.0247 54.4313 30.4505 53.284 30.3055 51.6551C30.1909 50.3667 29.7787 46.0322 29.5404 42.7916C29.2975 39.4877 29.9682 38.3318 30.3515 37.1802C30.7347 36.0286 30.9271 35.166 31.1165 34.9719C31.306 35.0624 31.685 35.5369 32.0754 36.0257M102.124 59.3166C102.124 59.1596 102.138 58.9308 102.16 58.5747M102.16 58.5747C102.177 58.2986 102.198 57.9459 102.221 57.4908M102.16 58.5747C101.964 59.1399 101.698 59.64 101.331 59.9826M102.16 58.5747C102.483 57.6443 102.619 56.5373 102.708 55.6648M102.221 57.4908C102.276 56.3937 102.338 54.7014 102.364 52.0519C102.365 51.9082 102.364 51.7786 102.36 51.6618M102.221 57.4908C102.047 57.8924 101.825 58.282 101.546 58.6495C101.257 59.0291 100.819 59.1206 100.782 58.8824C100.402 56.4067 100.387 51.7458 101.362 50.7838C101.514 50.6334 101.723 50.5426 101.898 50.559M102.221 57.4908C102.478 56.8975 102.631 56.278 102.708 55.6648M102.36 51.6618C102.333 50.907 102.196 50.6828 102.031 50.5969C101.99 50.5757 101.945 50.5634 101.898 50.559M102.36 51.6618C102.603 52.5203 102.856 53.8511 102.75 55.2546M102.36 51.6618C102.227 51.1919 102.097 50.8635 102.031 50.7421C101.994 50.674 101.949 50.6132 101.898 50.559M101.898 50.559C101.523 50.1644 100.798 50.121 100.168 50.1627C100.073 50.169 99.9822 50.1829 99.8948 50.2049M102.708 55.6648C102.726 55.5277 102.74 55.3908 102.75 55.2546M102.708 55.6648C102.722 55.5361 102.734 55.4125 102.746 55.2953C102.747 55.2818 102.749 55.2682 102.75 55.2546M102.75 55.2546C102.862 54.1729 103.132 52.7728 103.135 48.3407M99.8948 50.2049C99.6698 50.2616 99.4655 50.3718 99.2577 50.5437C98.929 50.8156 98.6747 51.2393 98.4819 51.7613M99.8948 50.2049C100.39 48.5509 101.025 46.774 101.845 46.1916M99.8948 50.2049C99.7864 50.5665 99.6848 50.9222 99.5893 51.2582C99.0115 53.2915 99.2534 55.6648 99.7773 57.2506C100.138 58.3435 100.811 59.3361 101.331 59.9826M98.4819 51.7613C97.8205 53.5518 97.8827 56.4989 98.1473 58.4444M98.4819 51.7613C98.4828 49.9345 98.5875 48.2493 98.8487 47.3642M98.4819 51.7613C98.4811 53.3393 98.5577 55.0231 98.6778 56.388C98.7859 57.618 99.1558 58.7358 99.3007 59.8874C99.3114 59.9724 99.3281 60.057 99.35 60.1409M98.1473 58.4444C98.1777 58.668 98.2107 58.8783 98.2457 59.0722C98.2773 59.2476 98.3463 59.3996 98.4421 59.5313M98.1473 58.4444C98.1101 58.2548 98.0799 58.0648 98.0562 57.8746C97.8179 54.9632 97.7451 50.3343 98.1538 49.2483C98.3675 48.6807 98.5566 47.9631 98.8487 47.3642M98.1473 58.4444C98.2188 58.8095 98.316 59.1728 98.4421 59.5313M98.4421 59.5313C98.652 59.82 98.991 60.0118 99.35 60.1409M98.4421 59.5313C98.6469 60.1139 98.9277 60.6841 99.2979 61.2302C99.5123 61.4038 99.7623 61.498 100.228 61.586M99.35 60.1409C99.6971 60.2658 100.063 60.332 100.349 60.3705C100.683 60.4154 100.97 60.277 101.211 60.0858C101.252 60.0532 101.292 60.0188 101.331 59.9826M99.35 60.1409C99.4792 60.6359 99.7922 61.1084 100.159 61.5178C100.181 61.542 100.204 61.5647 100.228 61.586M101.331 59.9826C101.556 60.2624 101.752 60.4774 101.882 60.6077C102.08 60.8069 102.406 60.7543 102.647 60.612C103.711 59.9838 103.939 57.8904 104.372 54.9215C104.956 50.9241 103.861 49.6581 103.135 48.3407M103.135 48.3407C103.135 47.9989 103.134 47.6391 103.13 47.26C103.13 47.1878 103.127 47.1197 103.123 47.0553M103.135 48.3407C103.101 48.2793 103.068 48.2177 103.036 48.1557C102.729 47.5632 102.509 46.9552 102.08 46.429C102.008 46.3409 101.929 46.2621 101.845 46.1916M103.123 47.0553C103.066 46.1548 102.685 45.9975 102.416 45.9948C102.221 45.9929 102.035 46.0598 101.858 46.1824M103.123 47.0553C103.826 47.7709 104.335 48.6234 104.422 49.5445C104.708 52.5536 104.6 57.3384 104.132 58.4583C103.652 59.6099 103.467 61.4848 102.071 61.7622C101.394 61.8968 100.645 61.9568 100.228 61.586M103.123 47.0553C102.904 46.832 102.666 46.6221 102.416 46.4275C102.262 46.3078 102.072 46.23 101.858 46.1824M101.858 46.1824C101.854 46.1855 101.85 46.1885 101.845 46.1916M101.858 46.1824C101.848 46.18 101.837 46.1777 101.826 46.1755M101.845 46.1916C101.839 46.1862 101.832 46.1808 101.826 46.1755M101.826 46.1755C101.411 45.8371 100.875 45.6984 100.406 45.6584C99.789 45.6057 99.351 46.3743 99.0165 46.948C98.9546 47.0542 98.8988 47.1945 98.8487 47.3642M101.826 46.1755C101.364 46.0805 100.793 46.121 100.217 46.1846C99.5589 46.2571 99.1492 46.7479 98.8487 47.3642M100.228 61.586C100.283 61.5963 100.34 61.6066 100.402 61.6169M75.4253 59.6042C75.4253 59.1861 75.4507 58.5867 75.4807 57.6615M75.4807 57.6615C75.486 57.4995 75.4914 57.3274 75.4968 57.1446M75.4807 57.6615C75.5277 57.6213 75.5738 57.5807 75.6191 57.5396C76.1947 56.4354 77.3186 55.2598 76.8119 50.7752C76.5736 48.6661 76.797 46.7535 76.1401 45.8956C75.9937 45.7044 75.7055 45.5631 75.421 45.6109C74.8523 45.7066 73.597 45.4965 72.9008 46.4557M75.4807 57.6615C75.4589 57.6802 75.4369 57.6988 75.4147 57.7173M75.4968 57.1446C75.5177 56.4402 75.5391 55.5759 75.5545 54.5073M75.4968 57.1446C75.6017 56.2576 75.6117 55.3395 75.5545 54.5073M75.4968 57.1446C75.474 57.3374 75.4468 57.5287 75.4147 57.7173M75.5545 54.5073C75.5746 53.1133 75.5846 51.3716 75.5703 49.1836C75.5606 47.716 75.1439 47.3434 74.8554 47.0529C74.5669 46.7625 74.2827 46.5727 73.8994 46.475C73.586 46.395 73.212 46.3805 72.9008 46.4557M75.5545 54.5073C75.519 53.9892 75.4574 53.5045 75.3765 53.0813C75.1382 51.8348 75.2251 50.4265 74.2253 49.6336C73.9841 49.4424 73.6051 49.3392 73.5578 50.4244C73.4157 53.6837 73.349 56.264 73.176 56.9731C72.8358 58.3677 72.297 60.422 71.1147 60.6106C70.8453 60.6535 70.5502 60.6047 70.3447 60.4111M72.9008 46.4557C72.8316 46.4724 72.7654 46.4936 72.7037 46.5196C71.3869 47.0728 71.0271 48.9593 70.5463 50.111C70.0786 51.2309 69.9707 52.5996 69.7324 54.6556C69.3877 57.6293 69.8731 59.8888 70.3022 60.3676C70.3159 60.3828 70.3301 60.3973 70.3447 60.4111M72.9008 46.4557C72.8959 46.4625 72.8909 46.4695 72.886 46.4764C72.0721 47.6309 71.4281 48.9499 71.1176 50.3597C70.8319 51.6565 70.6053 52.9898 70.496 54.1452C70.3266 55.9369 70.0923 58.7527 70.3447 60.4111M70.3447 60.4111C70.4473 61.0854 70.6303 61.5683 70.931 61.7133C71.1247 61.8067 71.4258 61.7524 71.6975 61.6155C72.8473 61.0361 74.6061 60.4719 75.0937 59.0248C75.2314 58.6161 75.3371 58.1745 75.4147 57.7173M75.4147 57.7173C74.9832 58.0774 74.4871 58.4029 73.9942 58.6912C73.7056 58.8364 73.4214 58.9313 72.8415 59.0291M88.6312 63.6297C88.8207 64.202 89.7738 65.3492 90.9236 66.2147C92.0282 67.0463 93.2188 67.5576 94.3686 67.9414C94.6571 68.0378 94.9413 68.1327 95.1825 68.3239C95.4236 68.5151 95.6131 68.7998 95.6634 69.0887C95.7136 69.3777 95.6189 69.6624 95.428 69.9039C94.3758 70.7205 93.2303 71.4854 91.1791 72.1582C90.1786 72.256 88.568 72.256 86.9087 71.9685M95.2342 83.4701C95.0447 84.0424 94.0916 84.9999 92.9418 85.7202C91.8695 86.3919 90.4871 87.1593 88.5939 87.1593C79.5518 87.1593 77.5673 82.9262 76.3199 82.3971M121.359 58.454C121.93 58.2642 123.076 57.6891 124.273 57.3527C125.618 56.9747 127.376 57.0163 128.819 57.5885C130.104 58.0981 130.925 59.3109 131.644 60.4625C132.314 61.5364 132.745 62.7614 132.89 63.913C133.248 66.7601 132.94 71.3876 132.557 72.5392C132.15 73.7598 131.028 74.8381 129.976 75.7511C128.867 76.7133 127.681 77.0465 126.531 77.669C125.381 78.1017 124.52 78.3893 123.947 78.5805C123.659 78.6768 123.374 78.7717 122.507 79.4446M78.2961 55.8661C78.2014 56.4383 77.6301 57.5856 77.1019 58.7372C76.536 59.9708 75.6205 61.0361 74.854 62.1877C74.0875 63.3393 73.1344 64.4866 72.2702 65.6382C71.409 66.6949 70.5477 67.27 70.1171 67.6999C69.9707 67.94 69.9707 68.2247 70.5448 68.8055M96.3825 58.454C96.3825 59.0262 96.572 60.1735 97.1935 61.3251C97.7949 62.4394 98.6735 63.624 99.8232 64.5369C101.021 65.4876 102.118 66.1199 103.268 66.5512C103.557 66.6949 103.841 66.8847 104.13 67.0299C104.418 67.1751 104.702 67.27 105.569 67.9429M101.55 105.036C101.361 105.415 101.263 105.896 101.5 106.659C102.422 109.631 105.087 111.258 106.33 112.746C107.278 113.881 108.337 115.284 109.393 116.581C110.573 118.029 111.403 119.12 112.408 120.033C113.412 120.946 114.653 122.185 115.281 123.434C115.803 124.47 114.377 125.733 113.611 126.885C112.872 127.994 112.557 129.184 112.221 130.335C112.06 130.888 112.077 131.487 111.887 131.776C111.369 132.56 110.743 129.58 109.926 128.092C109.253 126.867 108.635 125.457 107.821 124.4C107.633 124.156 107.297 124.111 107.056 124.205C105.886 124.658 105.477 126.308 104.473 127.46C103.545 128.523 103.083 129.759 102.462 130.91C101.84 132.062 100.884 133.019 100.405 133.452C100.304 133.505 100.494 133.221 100.689 132.927M101.837 117.4C101.648 117.972 101.073 119.12 100.452 120.271C99.8678 121.353 99.4486 122.57 98.9203 123.722C98.3545 124.955 97.6285 126.021 97.0069 127.172C96.4228 128.254 96.0036 129.471 95.4753 130.623C94.9294 131.813 94.4705 132.922 94.0873 134.073C93.6935 135.256 92.8456 136.372 92.3648 137.524C91.9815 138.675 91.5997 139.823 91.5021 140.642V139.828M96.6696 126.889C96.6696 126.127 96.4801 124.594 96.3351 123.204C96.1694 121.615 95.9059 119.706 95.5701 118.412C95.5213 117.412 95.4265 116.54 95.283 115.065C95.2342 113.875 95.2342 111.787 95.5213 109.061M54.4681 103.598C54.4681 104.17 54.2786 105.697 54.1336 107.33C54.0028 108.804 53.4173 109.918 52.9867 111.07C52.6537 111.644 52.3637 112.221 52.3149 112.51C52.3609 112.515 52.5503 112.23 53.0326 111.362M53.0326 106.186C53.0355 106.186 51.89 106.376 50.7403 106.521C49.5522 106.671 48.7292 107.049 48.2986 107.191C48.1048 107.255 48.1522 107.618 48.2943 107.859C49.1179 109.259 51.0173 110.304 52.1671 111.071C53.3169 111.839 54.4623 112.414 55.6595 113.132C57.1317 114.014 58.1944 114.904 59.3916 115.719C60.8745 116.729 62.2136 117.492 63.3634 118.307C64.6105 119.191 65.6587 120.08 66.8084 120.848C67.9582 121.615 69.1037 122.57 70.4917 123.244C71.8205 123.89 72.8358 124.681 73.9856 125.162C75.1037 125.631 76.2808 125.929 77.4306 126.074C78.6186 126.224 79.4416 126.601 79.9196 126.744C81.0284 127.074 81.2589 128.896 81.7397 130.048C82.2074 131.168 82.5048 132.347 82.9354 133.498C83.3941 134.725 84.1297 135.797 85.1345 136.949C86.0514 137.999 87.0006 138.96 88.0054 139.873C89.0201 140.795 89.7738 141.933 90.3997 142.987C91.1174 144.139 91.5021 146.045 91.7403 147.872C91.7892 148.446 91.7892 149.3 92.0762 149.892M114.182 127.464C114.371 128.131 115.135 129.471 116.14 130.861C117.022 132.082 118.006 133.209 119.058 134.027C120.028 134.782 121.353 135.032 122.503 135.8C123.653 136.568 124.798 137.522 125.948 138.197C127.239 138.954 128.054 140.11 129.011 141.023C129.887 141.858 130.638 142.986 131.357 144.137C132.008 145.18 132.171 146.436 132.745 147.588C132.937 148.739 133.319 149.887 133.417 151.754C133.417 152.19 133.417 152.474 133.129 152.768M76.5736 130.052C76.5736 130.624 76.1947 131.771 75.4755 133.4C74.9417 134.61 74.4722 135.797 73.9913 137.187C73.5794 138.378 73.2262 139.535 72.843 140.687C72.439 141.901 72.365 143.273 72.1252 145.333C71.9945 146.457 69.5975 143.86 67.2993 142.04C65.8534 140.894 64.5218 139.736 63.1337 138.491C62.033 137.504 60.6002 136.481 59.1145 135.518C57.9202 134.744 56.3915 133.796 54.8083 132.739C53.596 131.93 52.1771 131.11 51.0273 130.342C49.9194 129.603 48.7321 128.908 47.5823 128.089C46.5513 127.356 45.2871 126.797 44.232 125.743C43.6564 124.592 43.2717 123.729 43.3191 123.013C43.3665 122.582 43.4612 122.012 43.8459 120.851M46.7168 106.761C46.7168 107.333 46.5273 108.481 45.8584 109.68C44.958 111.294 43.5646 112.983 42.4148 114.042C41.1143 115.239 39.5511 117.101 38.0612 118.355C36.6322 119.557 35.5262 120.368 34.3764 121.135C33.2266 121.903 32.0812 122.858 30.9314 123.723C29.8267 124.555 28.4467 125.446 27.1993 126.072C26.0304 126.66 24.904 127.269 23.7542 127.75C22.6361 128.219 21.2695 128.896 20.0221 129.523C18.7381 130.168 17.4398 131.007 15.7661 131.774C14.245 132.472 13.1335 133.117 11.9364 133.596C10.3693 134.223 9.40143 135.32 8.25165 136.04C7.28184 136.648 6.72004 137.81 6.23917 139.439C5.84341 140.779 5.66358 143.262 5.4253 147.562C5.26754 150.409 5.37649 155.821 5.32912 158.75C5.26309 162.833 4.89993 164.551 4.75495 170.237C4.68473 172.992 4.32575 175.478 4.18078 176.868C4.04201 178.199 3.4645 179.693 3.12861 181.467C2.85026 182.938 2.79271 184.104 2.50707 185.303C2.33534 186.024 2.21855 186.885 2.17119 187.746C2.13349 188.431 1.93147 193.835 1.97884 201.741C2.00077 205.4 2.50564 206.532 2.9822 207.779C3.56886 209.313 3.55636 210.558 3.89225 211.804C4.31842 213.386 4.22815 216.671 4.5138 218.898C4.66823 220.102 5.27889 221.197 5.75688 222.301C6.26419 223.473 7.95451 223.405 9.10429 223.789C10.2541 224.173 11.3995 224.556 13.2642 224.701C14.6904 224.812 15.9929 225.418 17.3321 225.755C19.3822 226.27 21.5336 226.091 23.2188 225.757C24.7127 225.462 25.7538 224.751 26.9036 224.32C28.1729 223.844 29.3883 222.456 30.6357 221.493C31.73 220.648 32.9309 220.15 34.2228 219.194C35.9489 217.917 37.2372 217.373 38.387 216.366C39.4911 215.4 41.0612 213.928 42.1205 212.581C42.9632 211.509 43.7483 210.569 44.6555 209.418C45.5286 208.31 46.4239 207.309 47.3354 206.35C48.1921 205.449 49.5819 205.008 50.7317 204.241L50.7319 204.241C51.8816 203.473 53.027 202.708 54.1767 201.988C54.4652 201.843 54.7494 201.748 55.0379 201.651L55.9035 201.362M45.5684 207.401C45.0919 207.116 44.5177 205.969 43.8014 204.77C42.8401 203.16 42.0315 201.466 41.3124 200.217C40.5048 198.813 40.2114 196.767 39.7808 195.521C39.2104 193.87 38.776 192.742 38.631 191.304C38.4826 189.833 38.1042 187.198 37.8659 185.027C37.6088 182.685 37.53 181.338 37.2444 179.802C37.1002 179.027 36.7664 178.362 36.4793 177.646C36.3148 177.236 36.3817 176.645 36.9028 176.352C39.4716 174.906 44.5694 175.771 47.479 175.675C51.199 175.552 48.0546 186.117 48.1996 187.984C48.3162 189.487 48.6288 191.005 48.7737 192.873C48.8759 194.189 49.3924 195.318 49.8733 196.47C50.3409 197.59 50.8278 198.769 51.3561 199.92C51.6326 200.523 52.1685 200.977 52.7412 201.312C53.2774 201.626 53.891 201.65 54.369 201.508C54.6575 201.081 54.7552 200.503 54.8025 199.929C54.8499 199.64 54.9446 199.355 55.3293 199.35M50.736 199.35C51.3073 199.065 52.6422 198.107 53.937 197.054C55.3366 195.914 56.4719 195.134 57.6217 194.464C57.9214 194.29 58.1944 194.082 58.3882 194.126C59.6158 194.409 60.3016 196.468 61.1155 197.573C61.9639 198.724 63.362 199.252 64.5117 199.636C65.0845 199.827 65.6615 200.02 66.2343 200.021C66.5228 199.928 66.807 199.643 67.0998 199.35M75.1382 182.097C75.0435 181.525 74.6616 180.378 74.231 179.226C73.5978 177.533 71.4118 176.254 70.2621 175.534C69.2207 174.882 67.9668 174.719 66.3405 174.574C62.1659 174.201 55.048 174.523 53.8982 174.907C52.7484 175.291 51.6029 175.673 50.4532 176.105C50.1647 176.248 49.8804 176.438 49.5919 176.583C49.3034 176.729 49.0192 176.824 49.0134 177.209M71.119 186.985C71.2138 187.08 71.3085 187.175 71.2152 187.129C70.1939 186.625 69.1152 185.743 68.2037 184.737C66.9132 183.635 65.762 182.387 65.617 181.956C65.6615 181.81 65.9457 181.81 66.2386 181.81M68.5352 193.599C68.5352 193.409 68.251 193.027 67.7257 192.453C67.295 191.879 66.8156 191.491 66.2429 191.252C65.9543 191.109 65.6701 190.919 65.0902 190.436M63.0806 201.937C63.2701 201.937 63.9361 201.937 64.8921 201.795C66.2669 201.59 66.428 199.643 67.0496 198.491C67.651 197.377 68.34 196.192 68.8683 195.041C69.4341 193.807 70.1601 192.742 70.5908 191.59C71.0494 190.364 71.5956 189.291 72.2171 188.14C72.8012 187.058 73.2205 185.841 73.7487 184.689C74.2946 183.499 74.7535 182.39 75.1368 181.239C75.52 180.087 75.9019 178.94 76.3325 177.788C76.7911 176.562 77.5268 175.489 78.0076 174.338C78.4753 173.218 78.9622 172.039 79.443 170.887C79.9235 169.737 80.4952 168.588 80.9258 167.437C81.414 166.131 81.9306 164.85 82.5522 163.699C83.1363 162.616 83.3661 161.4 83.9876 160.01C84.5227 158.813 85.0886 157.662 85.4718 156.51C85.8467 155.384 86.1393 154.211 86.6676 153.06C87.2334 151.826 88.3384 151.14 89.4882 150.709C90.7128 150.25 96.3308 149.892 102.206 149.94C104.143 149.955 105.851 150.37 108.907 150.515C109.879 150.561 111.015 150.755 112.449 150.802C113.326 150.831 118.534 151.043 126.14 151.09C129.108 151.108 131.008 151.33 133.59 151.378C134.854 151.401 137.602 151.618 141.476 151.57C143.177 151.549 148.107 151.33 155.282 151.378C158.78 151.401 160.11 151.807 161.498 151.953C162.735 152.082 164.221 152.48 165.566 152.719C165.854 152.77 166.138 152.768 166.332 152.91C167.712 153.923 166.529 157.075 165.86 158.227C165.165 159.423 164.33 160.526 163.563 161.677C162.825 162.787 162.32 163.976 161.554 165.128C160.815 166.238 160.311 167.427 159.544 168.578C158.778 169.73 158.014 170.877 157.247 172.076C156.392 173.415 155.907 174.615 155.285 175.814C154.573 177.188 154.471 178.641 154.326 179.792C154.177 180.982 153.61 182.091 153.227 183.243C152.833 184.426 151.985 185.542 151.219 186.693C150.452 187.845 149.689 188.992 148.731 189.905C148.537 190.145 148.443 190.43 148.058 190.148M142.89 200.5C142.606 200.022 141.271 198.878 140.5 197.676C139.786 196.563 138.59 195.997 137.44 195.613C136.259 195.219 135.145 194.559 134.328 193.603C133.924 193.131 133.991 192.357 134.133 191.734C134.386 190.626 136.282 190.821 137.431 190.676C138.689 190.517 140.014 190.246 144.738 190.196C146.649 190.175 147.765 191.103 148.867 192.157C149.849 193.095 149.97 194.456 149.973 198.232C149.974 200.017 148.827 201.069 147.822 201.982C146.818 202.895 145.956 203.945 144.952 204.857C143.894 205.819 143.086 207.107 142.081 208.02C141.076 208.933 140.215 209.983 139.163 210.848C138.095 211.727 136.867 212.191 135.718 212.336C135.132 212.41 134.094 212.577 132.804 212.482C131.262 212.368 130.454 210.857 129.687 209.705C128.932 208.57 127.681 207.884 126.578 207.069C125.487 206.262 124.712 205.106 123.66 204.241C122.631 203.394 121.365 203.185 120.215 202.802C118.98 202.389 117.443 202.225 116.148 201.986C115.444 201.856 114.759 201.843 112.149 201.699C105.476 201.331 100.692 201.555 99.7873 201.411C96.9909 200.967 92.214 201.075 88.8781 201.313C86.0539 201.516 83.9575 201.65 82.2723 201.889C80.8891 202.084 78.032 202.225 75.1511 202.464C69.6865 202.418 68.541 202.035 64.1012 201.985C63.3648 202.032 63.6491 202.127 63.9419 202.225M136.574 205.963C136.385 205.966 135.621 204.819 134.807 203.667C133.926 202.42 132.561 201.845 131.411 201.078C130.278 200.321 129.403 199.068 128.872 197.679C128.683 197.185 128.823 196.394 128.965 195.955C129.365 194.721 131.114 194.559 132.264 194.175C132.837 193.984 133.414 193.697 134.223 193.409C134.749 193.311 135.506 193.311 136 192.736M128.823 199.062C128.826 198.967 127.491 198.774 126.102 198.536C125.116 198.367 124.233 198.677 123.66 199.059C122.7 199.922 122.223 200.784 121.745 201.358C121.551 201.647 121.457 201.932 121.359 202.513M121.359 174.909C121.264 174.909 121.169 174.909 121.121 175.051C120.931 175.603 121.154 176.254 121.475 176.997M121.475 176.997C121.66 177.427 121.877 177.887 122.066 178.378M121.475 176.997C121.31 176.444 121.223 176.044 121.457 176.397L121.459 176.401C121.612 176.63 121.895 177.057 122.128 177.781M121.475 176.997C121.664 177.632 121.955 178.469 121.98 178.598C122.005 178.721 122.034 178.62 122.066 178.378M122.066 178.378C122.135 178.557 122.201 178.741 122.259 178.928M122.066 178.378C122.086 178.227 122.107 178.022 122.128 177.781M122.259 178.928C122.342 179.191 122.411 179.462 122.458 179.741C122.477 179.847 122.489 179.951 122.498 180.048M122.259 178.928C122.168 179.232 122.029 179.51 121.834 179.752C121.64 179.992 121.365 180.202 121.068 180.326C120.495 180.564 118.988 181.053 117.139 180.61C116.379 180.429 115.643 180.297 114.925 180.015M122.259 178.928C122.291 178.823 122.317 178.715 122.338 178.605M122.498 180.048C122.533 180.431 122.507 180.699 122.507 180.516C122.507 180.354 122.504 180.199 122.498 180.048ZM122.498 180.048C122.477 179.497 122.418 179.018 122.338 178.605M122.338 178.605C122.278 178.295 122.206 178.022 122.128 177.781M122.338 178.605C122.469 177.919 122.4 177.137 122.234 176.38M122.128 177.781C122.164 177.381 122.2 176.883 122.234 176.38M122.234 176.38C122.263 175.941 122.291 175.498 122.315 175.11C122.319 175.038 122.331 174.991 122.348 174.965M122.234 176.38C122.057 175.578 121.771 174.804 121.494 174.197M122.348 174.965C122.397 174.887 122.492 174.993 122.575 175.182M122.348 174.965C122.425 175.037 122.501 175.109 122.575 175.182M122.348 174.965C122.07 174.706 121.778 174.453 121.494 174.197M122.575 175.182C122.623 175.291 122.667 175.428 122.697 175.573C123.1 177.557 123.081 179.498 122.463 180.848C122.435 180.908 122.398 180.964 122.353 181.017M122.575 175.182C123.234 175.827 123.768 176.515 123.848 177.36C123.943 178.365 123.918 179.264 123.605 179.801C123.34 180.257 123.006 180.798 122.376 181.029M122.353 181.017C122.344 181.027 122.335 181.037 122.326 181.047M122.353 181.017C122.361 181.022 122.368 181.026 122.376 181.029M122.353 181.017C122.341 181.011 122.33 181.004 122.319 180.996C122.125 180.855 122.031 180.475 121.933 180.084M122.326 181.047C121.468 181.956 117.991 181.776 115.909 181.285C114.905 181.048 114.095 180.125 113.42 179.126M122.326 181.047C122.176 181.097 122.01 181.129 121.825 181.14C120.104 181.234 118.782 181.061 118.148 180.994C116.955 180.87 115.883 180.534 114.925 180.015M122.326 181.047C122.343 181.041 122.36 181.036 122.376 181.029M113.42 179.126C113.415 179.118 113.409 179.109 113.403 179.1M113.42 179.126C112.493 178.561 111.584 177.866 111.453 176.673C111.311 175.38 111.301 174.243 111.697 173.852C111.891 173.661 112.226 173.486 112.415 173.665C113.326 174.529 114.504 175.846 116.82 175.435C117.63 175.291 118.547 175.254 118.633 174.614C118.71 174.045 118.496 173.032 118.396 172.295M113.42 179.126C113.436 179.136 113.451 179.145 113.466 179.154M113.403 179.1C112.976 178.464 112.604 177.799 112.271 177.262C112.066 176.931 111.983 176.64 111.887 176.635C111.79 176.631 111.696 176.916 112.026 177.442C112.48 178.166 112.938 178.698 113.403 179.1ZM113.403 179.1C113.424 179.118 113.445 179.136 113.466 179.154M113.466 179.154C113.945 179.556 114.431 179.821 114.925 180.015M113.466 179.154C113.811 179.362 114.157 179.554 114.465 179.746C114.615 179.841 114.769 179.93 114.925 180.015M121.494 174.197C121.305 173.784 121.121 173.448 120.979 173.235C120.238 172.127 119.065 171.748 118.634 171.459C118.306 171.239 118.31 171.667 118.396 172.295M121.494 174.197C121.352 174.069 121.212 173.94 121.076 173.81C120.28 173.046 119.325 172.625 118.396 172.295M118.396 172.295C118.137 172.203 117.881 172.118 117.631 172.035C117.343 171.938 117.058 171.843 116.912 171.652C116.766 171.461 116.766 171.176 117.192 171.03C119.502 170.235 120.779 171.55 121.929 171.84C123.267 172.178 124.035 173.753 124.515 174.904C124.983 176.024 125.091 177.772 124.52 179.217C124.266 179.858 123.658 180.369 123.086 180.848C122.824 181.023 122.567 181.118 122.376 181.029M120.498 168.295C120.466 168.2 120.424 168.098 120.375 167.991M120.375 167.991C120.361 167.96 120.346 167.929 120.331 167.898M120.375 167.991C120.345 167.971 120.314 167.947 120.283 167.919M120.375 167.991C120.383 167.996 120.391 168.001 120.399 168.006C120.565 168.106 120.687 167.726 120.689 167.437C120.69 167.193 120.607 166.952 120.468 166.718M120.331 167.898C120.324 167.884 120.317 167.869 120.309 167.855M120.331 167.898C120.321 167.891 120.311 167.883 120.301 167.876M120.331 167.898C120.382 167.935 120.438 167.971 120.498 168.008M120.309 167.855C120.217 167.67 120.107 167.48 119.996 167.303M120.309 167.855C120.307 167.862 120.304 167.869 120.301 167.876M120.309 167.855C120.346 167.762 120.376 167.654 120.4 167.534C120.449 167.294 120.474 167.006 120.468 166.718M119.996 167.303C119.907 167.161 119.817 167.028 119.734 166.914M119.996 167.303C119.962 167.341 119.927 167.377 119.891 167.41M119.996 167.303C120.116 167.172 120.224 167.018 120.302 166.863C120.345 166.78 120.377 166.697 120.402 166.615M119.734 166.914C119.64 166.785 119.556 166.681 119.494 166.619C119.298 166.421 119.543 166.956 119.87 167.429M119.734 166.914C119.733 166.908 119.732 166.902 119.731 166.896C119.673 166.57 119.651 166.159 119.676 165.836M119.734 166.914C119.77 167.109 119.819 167.27 119.891 167.41M119.87 167.429C120.002 167.62 120.148 167.801 120.283 167.919M119.87 167.429C119.726 167.56 119.574 167.651 119.441 167.671C119.234 167.702 119.078 167.563 118.972 167.32M119.87 167.429C119.877 167.423 119.884 167.416 119.891 167.41M120.283 167.919C120.175 168.157 120.023 168.281 119.823 168.245C119.54 168.193 119.076 167.855 118.972 167.32M120.283 167.919C120.289 167.905 120.295 167.891 120.301 167.876M120.468 166.718C120.447 166.684 120.425 166.649 120.402 166.615M120.468 166.718C120.465 166.614 120.459 166.51 120.449 166.408M120.402 166.615C120.218 166.34 119.959 166.076 119.676 165.836M120.402 166.615C120.424 166.546 120.439 166.477 120.449 166.408M119.676 165.836C119.664 165.826 119.652 165.816 119.641 165.806C119.374 165.583 119.068 165.517 118.922 165.753C118.88 165.82 118.85 165.913 118.831 166.023M119.676 165.836C119.691 165.631 119.726 165.461 119.783 165.371C119.929 165.138 120.213 165.423 120.356 165.907C120.4 166.06 120.431 166.231 120.449 166.408M118.831 166.023C118.783 166.301 118.802 166.682 118.87 166.994C118.896 167.116 118.93 167.226 118.972 167.32M118.831 166.023C118.808 165.375 118.892 164.878 119.161 164.748C119.355 164.655 119.639 164.75 119.879 164.944C120.119 165.138 120.308 165.423 120.403 165.76C120.46 165.964 120.483 166.182 120.449 166.408M118.831 166.023C118.845 166.404 118.895 166.837 118.965 167.28C118.967 167.294 118.969 167.307 118.972 167.32M119.891 167.41C119.983 167.59 120.113 167.736 120.301 167.876M49.0134 131.202C49.0106 131.487 49.7771 132.634 50.3986 133.786C50.9827 134.868 51.2125 136.085 51.5484 137.568C51.8952 139.1 51.6919 140.401 51.8355 143.014C52.4648 154.474 52.1714 155.637 52.4097 156.836C52.7008 158.301 52.935 159.853 53.2709 162.288C53.3197 166.42 53.225 169.442 53.0814 170.823C53.0326 171.918 53.0326 173.816 53.0326 175.196M32.3625 132.065C32.7443 132.349 33.1261 133.686 33.462 135.269C33.8122 136.919 33.7979 138.856 34.0362 141.256C34.2151 143.058 34.1798 144.426 34.3233 147.704C34.4543 150.695 34.3721 156.391 34.4195 159.466C34.505 165.022 34.8487 169.439 35.1846 170.591C35.5095 171.705 35.5204 172.89 35.8061 174.042C36.1893 175.193 36.3817 176.34 36.6673 177.207C36.7635 177.212 36.8583 176.927 36.9559 176.634M32.6496 182.385C32.3654 182.672 30.6515 182.672 29.2089 182.386C27.9667 182.14 26.943 180.891 26.0863 179.846L26.0495 179.801C25.1519 178.706 25.1854 172.091 24.9471 167.683C24.7164 163.416 25.3748 162.262 25.7107 160.589C25.7595 159.778 25.7595 158.45 25.7122 157.575C25.6648 156.701 25.5701 156.322 25.1854 155.643M30.3529 182.672C30.219 183.144 29.7983 183.951 29.175 184.723M29.175 184.723C28.9163 185.044 28.6227 185.358 28.3002 185.64C26.8397 186.915 25.0992 188.222 23.7542 189.235C22.7436 189.997 21.459 190.718 20.3092 191.583C20.095 191.744 19.8874 191.913 19.6851 192.086M29.175 184.723C28.3311 185.106 27.4923 185.544 26.6165 185.837C25.4667 186.22 24.1872 186.633 23.1715 187.612C21.9241 188.814 20.6296 190.069 20.0638 191.303C19.9469 191.557 19.8207 191.821 19.6851 192.086M29.175 184.723C29.4693 184.59 29.7642 184.463 30.0615 184.351C31.2862 183.892 32.3568 183.345 33.5065 182.961C34.6563 182.577 35.8018 182.005 36.9516 181.429C37.2401 181.237 37.5243 180.953 37.8171 180.659M19.6851 192.086C18.8591 192.797 18.1217 193.601 17.3896 194.41C16.4298 195.469 14.9537 196.658 14.0393 197.908C13.8484 198.168 13.7996 198.481 13.8929 198.533C15.0021 199.148 16.6589 196.1 17.9092 194.753C18.6149 193.993 19.2078 193.022 19.6851 192.086ZM124.517 150.755C124.422 150.183 124.23 148.846 123.992 146.458C123.943 142.468 124.037 139.544 124.181 138.78C124.23 138.302 124.23 137.637 124.23 137.528M114.756 150.467C114.469 150.183 114.469 147.707 114.469 143.391C114.564 140.119 114.756 138.592 114.994 136.96C115.043 136.387 115.043 135.533 115.33 134.078M105.856 128.614C105.572 128.614 105.288 128.614 105.141 128.757C102.516 131.309 104.995 139.34 104.757 140.734C104.613 142.126 104.421 144.222 104.183 146.337C104.134 147.1 104.134 148.334 104.421 149.605M107.866 202.513C108.153 203.085 108.342 204.232 108.393 207.532C108.419 209.251 107.866 210.558 107.58 211.71C107.294 212.862 107.102 214.008 106.957 216.401C106.817 218.709 106.528 221.387 106.383 223.829C106.298 225.263 105.856 228.935 106.046 233.584C106.235 235.103 106.614 234.913 106.952 234.72C107.289 234.527 107.573 234.338 107.866 234.142M119.062 239.03C118.775 238.079 118.775 234.263 119.252 231.418C119.469 230.123 119.636 228.972 119.875 227.821C120.129 226.592 120.4 225.044 120.545 223.795C120.613 223.208 120.785 218.278 120.737 211.091C120.715 207.675 119.832 206.544 119.398 205.345C119.255 203.953 119.062 202.616 118.682 201.414C118.491 201.173 118.207 200.983 117.914 200.787M92.9375 237.305C92.9375 237.308 92.9375 235.971 93.4141 233.53C93.9957 230.55 94.4648 227.828 94.7074 226.383C94.9211 225.11 95.2342 223.227 95.4725 221.592C95.7778 219.498 95.8083 217.764 96.0466 215.892C96.4649 212.606 95.6189 211.432 94.9973 210.28C94.5653 209.129 94.3729 205.704 94.0399 203.379C93.8964 203.09 93.7069 202.806 93.5117 202.513M83.1766 204.238V203.664C83.1766 202.806 82.9871 205.86 82.8421 209.018C82.7697 210.595 82.3153 212.088 82.077 216.093C81.609 223.961 82.123 229.539 82.3139 230.112C82.5048 230.686 82.6024 232.118 82.6498 233.985C82.6972 234.714 82.7919 234.999 82.8895 235.292M82.3153 161.682C82.0282 161.397 82.0282 158.542 82.3139 156.51C82.4829 155.308 82.8895 153.832 83.1752 152.485C83.4637 151.048 83.5584 149.608 83.702 148.417C83.7508 147.512 83.7508 145.993 83.7508 144.429M82.3153 140.691C81.744 140.691 80.5986 140.501 79.4488 140.117C78.299 139.733 77.1535 139.351 76.0038 138.92C75.7153 138.776 75.431 138.586 75.1425 138.394C74.854 138.201 74.5698 138.011 74.8511 138.103M69.3965 142.704C69.3018 143.276 68.9199 144.613 68.775 146.34C68.6685 147.608 68.3458 148.736 68.2955 154.947C68.2644 158.796 68.7247 162.826 68.775 165.887C68.8009 167.465 68.2482 168.767 68.0099 170.063C67.9611 170.779 67.8663 171.455 67.7228 172.313C67.674 172.887 67.674 173.741 68.2482 174.621M68.5352 202.513C68.5352 203.085 68.5352 204.422 68.297 205.957C68.075 207.388 67.9611 209.115 68.4376 211.983C69.2317 216.762 68.63 220.337 68.7735 221.623C68.9171 226.376 69.1094 227.903 69.3477 231.054C69.3965 232.957 69.3965 236.373 69.1094 239.605M55.0422 201.937C54.7552 202.412 54.7552 204.893 54.5169 207.625C53.9368 214.275 54.181 215.446 53.9427 216.836C53.7225 218.121 53.4173 219.472 53.2724 220.623C53.1226 221.813 52.5561 222.922 52.4111 224.074C52.2613 225.264 51.8843 226.373 51.646 228.141C51.0751 232.378 51.3101 234.32 51.0718 236.148C51.023 236.721 51.023 237.575 51.2599 237.778C51.4967 237.981 51.9704 237.506 52.4585 237.018M41.8363 199.925C41.5521 200.402 40.4066 201.167 39.2568 201.935C38.1236 202.691 37.2487 203.755 36.3372 204.761C35.4256 205.768 34.3778 206.44 33.3716 207.491C31.8455 209.085 30.9328 210.081 28.8299 212.042C27.4582 213.321 26.0524 214.584 25.3791 215.735C24.6231 217.028 23.4686 218.034 22.6045 219.186C21.7862 220.276 20.7872 221.197 19.4968 222.587C19.1594 222.925 18.8752 223.21 18.9183 223.262C18.9614 223.313 19.3403 223.124 19.7307 222.928M5.66358 221.778C5.66358 221.781 6.04253 220.633 6.85642 219.482C7.73919 218.233 8.6263 217.183 9.44018 216.079C10.246 214.986 11.2101 214.02 12.0239 212.868C12.9067 211.619 13.7938 210.569 14.7513 209.657C15.7794 208.676 16.6647 207.119 17.9078 205.729C18.8832 204.638 19.8226 203.668 20.8274 202.756C21.8323 201.843 22.8829 200.983 23.7944 199.976C24.706 198.97 25.7538 197.918 26.9036 197.052C28.0082 196.221 29.1988 195.52 30.3486 194.799C31.4208 194.128 32.6439 193.507 33.7936 192.978C34.9819 192.431 36.0889 191.781 37.2387 191.3C38.3884 190.916 39.5339 190.344 40.6837 189.767C40.9722 189.576 41.2564 189.291 41.5492 188.998M38.3913 128.902C37.82 129.379 35.9166 131.093 34.3764 132.111C33.2451 132.858 32.0812 133.405 30.9314 134.027C29.8188 134.63 28.6361 135.13 27.4864 135.752C26.3738 136.355 25.4753 136.855 25.2342 137.19C25.2772 137.335 25.6562 137.43 25.9935 137.479C26.3308 137.528 26.615 137.528 26.9079 137.528M35.7079 60.4894C35.5315 59.9556 34.8202 59.361 34.0768 58.8253C33.136 58.1474 32.5026 57.5754 31.9366 56.9505C31.3651 56.3194 30.5417 56.0863 29.8277 55.6997C29.1368 55.3257 28.4024 55.015 26.2088 54.9837C25.1709 54.969 24.4805 55.5471 23.7371 56.0827C22.8302 56.7363 22.6372 57.629 22.1612 58.3441C21.7025 59.0332 21.6246 59.8895 21.4767 61.284C21.0708 65.1095 21.9206 65.8425 22.188 66.7058C22.445 67.5356 23.1078 68.1637 23.7024 68.8788C24.2829 69.577 24.8905 70.4849 25.5145 71.2C26.0838 71.8525 26.6732 72.4489 28.2144 74.0238C29.0051 74.8318 29.8215 75.188 30.7128 75.6647C31.6296 76.1551 32.4955 76.32 33.2095 76.5289C33.9001 76.731 34.6348 76.8556 35.3487 77.094L37.488 77.8082C37.6671 77.868 37.8436 77.927 38.2037 78.1662M64.4437 202.664C63.4057 202.664 61.1705 202.525 59.9148 202.28C58.1911 201.944 57.3322 201.687 56.4595 201.407C55.4588 201.086 54.6115 200.848 53.5996 200.36C53.3446 200.237 53.1465 200.081 53.2124 199.975C53.7797 199.065 55.3691 199.867 56.5903 200.147C58.2802 200.535 59.8311 200.844 60.9518 201.161C61.2229 201.237 61.5765 201.196 61.271 201.023C61.1576 200.959 61.0397 200.898 60.9188 200.84M60.9188 200.84C60.7816 200.774 60.6404 200.712 60.4973 200.653M60.9188 200.84C61.4699 200.962 62.0848 201.074 62.7757 201.163C64.6698 201.406 68.775 201.254 67.7609 201.161C66.2559 201.023 62.4475 200.958 60.4973 200.653M60.9188 200.84C59.4937 200.526 58.4958 200.151 57.7163 199.974C57.4013 199.939 57.056 199.939 56.8781 199.8C56.7002 199.662 56.7002 199.385 56.7002 199.1M60.4973 200.653C60.0862 200.485 59.6592 200.346 59.264 200.233M60.4973 200.653C59.9823 200.573 59.597 200.476 59.4178 200.356C59.3618 200.319 59.311 200.277 59.264 200.233M59.264 200.233C58.6387 200.054 58.0935 199.938 57.8188 199.87C56.6494 199.577 57.8792 199.863 59.1967 200.165M59.264 200.233C59.2407 200.211 59.2183 200.188 59.1967 200.165M59.1967 200.165C60.2039 200.396 61.2624 200.637 61.339 200.638C63.0073 200.648 58.7004 199.207 57.4086 198.631M59.1967 200.165C58.9379 199.887 58.7959 199.533 58.5115 199.378C57.7424 198.958 55.4142 198.726 55.8641 197.98C55.97 197.804 56.2808 197.274 56.7051 196.904M57.4086 198.631C57.3038 198.584 57.2188 198.543 57.1585 198.509C56.7739 198.291 57.3811 198.453 58.0959 198.653M57.4086 198.631C56.3962 198.591 55.7155 198.503 56.0734 198.086C56.2837 197.84 57.0979 197.248 56.8728 196.865C56.8556 196.835 56.7808 196.864 56.7051 196.904M57.4086 198.631C57.6249 198.64 57.8563 198.646 58.0959 198.653M58.0959 198.653C58.61 198.796 59.1798 198.958 59.4763 199.012M58.0959 198.653C58.6513 198.668 59.2509 198.686 59.8092 198.741M59.4763 199.012C59.5411 199.024 59.5928 199.031 59.6281 199.031C59.6833 199.031 59.732 199.029 59.7747 199.025M59.4763 199.012C59.454 198.981 59.4999 198.973 59.6312 198.995C59.6544 198.999 59.7046 199.01 59.7747 199.025M59.4763 199.012C59.5926 199.178 61.5639 200.002 62.939 200.705C63.7441 201.116 61.7391 200.036 60.4143 199.164M59.7747 199.025C59.9379 199.01 60.0123 198.964 60.0183 198.895M59.7747 199.025C59.9224 199.058 60.1584 199.111 60.4143 199.164M60.0183 198.895C60.0217 198.856 60.0041 198.81 59.9691 198.758M60.0183 198.895C60.1398 198.981 60.2732 199.071 60.4143 199.164M60.0183 198.895C59.9438 198.842 59.8738 198.791 59.8092 198.741M59.9691 198.758C59.8469 198.577 59.5122 198.322 59.1145 198.043M59.9691 198.758C59.9162 198.752 59.8629 198.747 59.8092 198.741M59.9691 198.758C60.5859 198.828 61.1402 198.949 61.5106 199.167C62.0229 199.47 61.139 199.315 60.4143 199.164M59.1145 198.043C58.3985 197.54 57.4779 196.958 57.2244 196.588C57.2232 196.586 57.2219 196.584 57.2207 196.582M59.1145 198.043C59.2263 198.187 59.3513 198.333 59.4931 198.475C59.5709 198.552 59.6789 198.643 59.8092 198.741M59.1145 198.043C58.6849 197.488 58.4503 196.956 58.2029 196.761C57.8595 196.491 57.5251 196.471 57.2207 196.582M57.2207 196.582C57.1069 196.407 57.2565 196.17 57.2234 196.167C56.9579 196.142 56.7023 196.792 56.5265 197.003C56.5153 197.016 56.611 196.952 56.7051 196.904M57.2207 196.582C57.0362 196.65 56.8628 196.766 56.7051 196.904M67.583 191.764C67.1665 191.625 66.3315 191.068 65.4933 190.334C64.7196 189.657 63.8201 188.904 62.9819 187.994C62.2109 187.156 61.5179 186.456 60.8535 185.757C60.0508 185.337 59.423 184.917 59.0055 184.673C58.7951 184.567 58.5879 184.498 58.793 184.637M129.741 210.629C129.81 210.627 129.95 211.602 129.742 212.687C129.569 213.589 129.322 214.952 129.114 216.111C128.591 219.023 129.042 223.831 129.287 224.913C129.743 226.929 129.532 230.304 129.358 232.945C129.322 233.675 129.322 234.92 129.322 235.423V234.735M35.5624 219.224C35.7716 219.5 35.9098 220.892 36.0154 222.745C36.1371 224.879 36.3283 226.975 36.365 231.155C36.3755 232.359 36.1902 234.438 36.1211 237.059C36.0521 237.882 35.9139 237.674 35.8428 237.36C35.7716 237.045 35.7716 236.63 35.7716 236.203" stroke="white" stroke-width="2" stroke-linecap="round"/>
</svg>
